<?xml version="1.0" encoding="UTF-8"?>
<svg id="Layer_1" xmlns="http://www.w3.org/2000/svg" version="1.1" viewBox="0 0 512 512">
    <path d="M151.32,218.75v177.72l-27.61-10.19v-166.79l27.61-.74ZM87.94,220.43v152.62l27.61,10.19v-163.54l-27.61.75v-.02ZM195.28,217.57v195.12l27.61,10.19v-206.05l-27.61.74ZM438.21,216.72l46.03,1.54v193.82l-46.03,17.49v-212.85ZM446.14,328.95c0,2.26,1.83,4.1,4.1,4.1s4.1-1.83,4.1-4.1v-36.88c0-2.26-1.83-4.1-4.1-4.1s-4.1,1.83-4.1,4.1v36.88ZM43.98,221.61l-20.84.55v126.97l20.84,7.68v-135.21ZM52.17,221.4v138.46l27.61,10.19v-149.37l-27.61.75v-.02ZM298.52,460.19c-1.49,0-2.79-.79-3.49-1.98l-69.23-25.56c-.14-.05-.31-.1-.46-.17l-35.34-13.03c-.14-.05-.31-.1-.46-.17l-35.34-13.03c-.14-.05-.29-.1-.43-.17l-35.34-13.06c-.14-.05-.29-.1-.43-.17l-35.34-13.06c-.14-.05-.29-.1-.43-.17l-35.34-13.06c-.14-.05-.29-.1-.43-.17l-23.29-8.6v18.81l313.46,125.48.34-28.42-37.14-13.71c-.41.14-.84.22-1.28.22h-.02ZM159.48,218.53v180.95l27.61,10.19v-191.89l-27.61.74ZM407.69,215.71v225.46l-62.49,23.75,2.99-251.19,59.5,1.98ZM400.9,299.51c0-2.26-1.83-4.1-4.1-4.1s-4.1,1.83-4.1,4.1v36.88c0,2.26,1.83,4.1,4.1,4.1s4.1-1.83,4.1-4.1v-36.88ZM415.86,215.98v222.07l14.16-5.4v-216.21l-14.16-.48v.02ZM484.24,195.09v15.01l-49.65-1.66c-.17-.02-.31-.02-.48-.02h-.22l-21.66-.72c-.17-.02-.31-.02-.48-.02h-.22l-67.28-2.24h-.22l-45.31,1.2h-.24c-.14,0-.31,0-.46.02l-35.07.94h-.24c-.14,0-.31,0-.46.02l-35.07.94h-.24c-.14,0-.31,0-.46.02l-35.07.94h-.24c-.14,0-.31,0-.46.02l-35.07.94h-.24c-.14,0-.31,0-.46.02l-35.07.94h-.24c-.14,0-.31,0-.46.02l-35.07.94h-.24c-.14,0-.31,0-.46.02l-35.07.94h-.24c-.14,0-.31,0-.46.02l-24.47.65v-8.84l40.54-2.05h.1l6.14-.31c-.53-1.73.12-3.66,1.78-4.6l172.06-97.41c-6.5-3.76-10.94-10.72-10.94-18.77,0-2.19,1.78-3.97,3.97-3.97s3.97,1.78,3.97,3.97c0,7.11,5.42,12.89,12.33,13.61.94-.39,1.95-.39,2.91,0,6.89-.75,12.31-6.53,12.31-13.61,0-7.59-6.17-13.78-13.78-13.78-2.19,0-3.97-1.78-3.97-3.97v-18.09h-9.06c-1.9,0-3.54-1.35-3.9-3.2l-5.64-28.38c-.24-1.18.07-2.38.82-3.3s1.88-1.45,3.08-1.45h37.34c1.2,0,2.34.53,3.08,1.47.75.94,1.06,2.14.82,3.32l-5.83,28.38c-.39,1.85-2.02,3.18-3.9,3.18h-8.84v14.5c10.09,1.88,17.75,10.72,17.75,21.34,0,8-4.38,14.91-10.82,18.69l160.6,88.26c1.37.75,2.1,2.19,2.02,3.66l56.1,2.43v-.04ZM244.83,38.25h19.34l4.19-20.4h-27.58l4.05,20.4ZM415.21,192.1l-160.6-88.26-173.89,98.45,263.75-13.25,70.74,3.05ZM302.59,452.3l34.45,12.72,2.99-251.34-37.43,1.01v237.61ZM266.82,215.63v221.33c0,.7-.17,1.35-.48,1.93l28.09,10.36v-234.38l-27.61.75v.02ZM435.29,439.39l-21.8,8.29c-.17.07-.36.14-.55.22l-67.86,25.8-.34,28.23,139.5-59.5v-21.63l-48.39,18.4c-.17.07-.36.14-.55.22v-.02ZM231.05,216.59v209.28l27.61,10.19v-220.22l-27.61.74Z"/>
</svg>